<svg xmlns="http://www.w3.org/2000/svg" xmlns:xlink="http://www.w3.org/1999/xlink" version="1.1" x="0px" y="0px" viewBox="0 0 100 125" style="enable-background:new 0 0 100 100;" xml:space="preserve"><style type="text/css">
	.st0{fill:none;}
</style><path d="M50,7.333313C26.4358521,7.333313,7.333313,26.435791,7.333313,50c0,23.5640869,19.1025391,42.666626,42.666687,42.666626  S92.666687,73.5640869,92.666687,50C92.666687,26.435791,73.5641479,7.333313,50,7.333313z M72.9296265,34.7672729  c-5.0521851,1.8995972-6.0446777,17.0827026-18.9647827,12.6257935c3.0984497-6.0151367,10.0817871-9.6774292,13.0139771-10.5652466  c-7.7353516,2.0027466-11.9745483,5.6661987-14.1557007,9.0963135  C51.7486572,39.4648438,53.4224243,31.6959229,72.9296265,34.7672729z M51.4251709,17.333313  c0,0,4.4332886,4.9353638,4.4332886,11.0234375c0,5.4844971-1.611084,10.0316162-3.72052,10.8796997  c-0.1035156-3.9954224-0.7127686-9.4418335-0.7127686-9.4418335s-0.6092529,5.4464111-0.7128296,9.4418335  c-2.109436-0.8480835-3.72052-5.3952026-3.72052-10.8796997C46.9918213,22.2686768,51.4251709,17.333313,51.4251709,17.333313z   M51.1768188,47.8866577c-2.1811523-3.4301147-6.4202881-7.0936279-14.1556396-9.0963135  c2.9321899,0.8877563,9.9155273,4.5501099,13.013916,10.5652466C37.1149902,53.8125,36.1224976,38.6293945,31.0703735,36.7297974  C50.5775146,33.6583862,52.2513428,41.4273682,51.1768188,47.8866577z M75.7252197,65.1072998  c-2.9789429,6.8184814-9.3096313,9.4508667-16.0841675,10.4051514c-5.2000122,1.3961182-10.7018433,1.3309326-14.5966187,0.789978  c0,0-9.3892822-0.9508057-12.9070435,1.9472656c-0.7891846,0.6501465-1.9556885,0.5292358-2.5709229-0.2874756  c-0.8462524-1.1233521-1.4473877-0.6755981-1.3778687-4.3615723c0.1090088-5.7785034,9.0134277-8.5330811,9.0134277-8.5330811  l-0.0023193,0.0054932c1.3579712-1.8044434,3.0135498-3.6983643,5.0435181-5.637207c0,0,5.2310181-6.0232544,6.5601196-8.9375  c0.2014771-0.4417114,0.8432617-0.4269409,1.0267334,0.022583c0.5646973,1.3833618,0.8496094,4.0309448-1.9037476,8.0840454  c0,0-3.539856,6.4044189-0.7528687,8.5482178c2.7866211,2.1437988,13.5195313-5.0843506,12.4474487-9.3713379  c-0.9914551-3.9660645-4.9377441-3.1353149-5.6864624-8.4925537c-0.0844116-0.604126,0.5780029-1.0387573,1.098877-0.7213745  c2.6361084,1.605957,8.6698608,5.6925659,8.9638062,9.609314c0,0-1.5004272,8.3607178-4.5016479,9.8612061  c0,0,9.9710083-4.3557739,10.7139893-13.7332764c0.6038818-7.6220093,3.0450439-7.7039795,4.5361328-7.4178467  c0.4666138,0.0895386,0.7655029,0.5438843,0.6691895,1.0090942c-0.291748,1.4093628-0.8774414,4.3009033-1.2158813,6.4013062  c0,0-0.4403076,4.3341675-2.2039795,8.4058228c1.1233521-2.1556396,2.3303833-4.8466187,2.4476929-6.6477661  c0.0183716-0.2821655,0.3498535-0.423584,0.5516968-0.2255859c0.4033203,0.3955688,0.8614502,1.0863037,0.7764282,2.1425781  c-0.2211304,2.7467041-2.0358276,7.3939819-5.7116699,11.4716797c1.6289673-1.3532715,2.9939575-3.09021,3.9714966-5.3276978  C74.5355835,62.9609985,76.2258911,63.9612427,75.7252197,65.1072998z"/><text x="0" y="115" fill="#000000" font-size="5px" font-weight="bold" font-family="'Helvetica Neue', Helvetica, Arial-Unicode, Arial, Sans-serif">Created by Ker'is</text><text x="0" y="120" fill="#000000" font-size="5px" font-weight="bold" font-family="'Helvetica Neue', Helvetica, Arial-Unicode, Arial, Sans-serif">from the Noun Project</text></svg>